<svg xmlns="http://www.w3.org/2000/svg" viewBox="0 0 64 64" id="vs">
  <path fill="#e7f819" d="M23.7 41.9a1 1 0 0 1-1-.7l-5.49-17.81a1 1 0 0 1 .65-1.25 1 1 0 0 1 1.26.66l4.54 14.63 4.25-14.61a1 1 0 1 1 1.92.55l-5.17 17.81a1 1 0 0 1-.95.72zm18.19 0h-3.17a5 5 0 0 1-4.95-4.9 1 1 0 1 1 2 0 3 3 0 0 0 2.95 2.94h3.17a3 3 0 0 0 3-2.94v-1.29a3 3 0 0 0-3-3h-3.17a5 5 0 0 1-4.95-4.95V27a5 5 0 0 1 4.95-4.94h3.63a4.49 4.49 0 0 1 4.49 4.48 1 1 0 0 1-2 0 2.49 2.49 0 0 0-2.49-2.48h-3.63A3 3 0 0 0 35.77 27v.77a3 3 0 0 0 2.95 3h3.17a5 5 0 0 1 5 4.95V37a5 5 0 0 1-5 4.9z" class="color222222 svgShape"></path>
  <path fill="#e7f819" d="M32 55.68A23.68 23.68 0 1 1 55.68 32 23.7 23.7 0 0 1 32 55.68Zm0-45.36A21.68 21.68 0 1 0 53.68 32 21.7 21.7 0 0 0 32 10.32Z" class="color222222 svgShape"></path>
  <path fill="#e7f819" d="M48 17a1 1 0 0 1-.71-.29 1 1 0 0 1 0-1.42l12-12a1 1 0 1 1 1.42 1.42l-12 12A1 1 0 0 1 48 17zM4 61a1 1 0 0 1-.71-.29 1 1 0 0 1 0-1.42l12-12a1 1 0 0 1 1.42 1.42l-12 12A1 1 0 0 1 4 61z" class="color222222 svgShape"></path>
</svg>
